<svg width="128" height="128" xmlns="http://www.w3.org/2000/svg">

 <g>
  <title>background</title>
  <rect fill="none" id="canvas_background" height="402" width="582" y="-1" x="-1"/>
 </g>
 <g>
  <title>Layer 1</title>
  <path id="svg_1" fill="#706d44" d="m104.275391,56c-2.93,0 -5.637001,0.844002 -8,2.219002l0,-42.219002c0,-4.422 -3.582001,-8 -8,-8l-48.000004,0c-4.417999,0 -8,3.578 -8,8l0,42.219002c-2.363001,-1.375 -5.07,-2.219002 -8,-2.219002c-8.836,0 -16,7.164001 -16,16c0,5.905998 3.238,11.008003 8,13.780998l0,22.219002c0,6.616997 5.382999,12 12,12c2.496,0 4.813,-0.765999 6.734001,-2.078003c1.413998,1.258003 3.226997,2.078003 5.265999,2.078003l48.000004,0c2.039001,0 3.851997,-0.82 5.265999,-2.078003c1.922005,1.312004 4.237999,2.078003 6.734001,2.078003c6.616997,0 12,-5.383003 12,-12l0,-22.219002c4.762001,-2.772995 8,-7.875 8,-13.780998c0,-8.835999 -7.164001,-16 -16,-16zm-72.000004,52c0,2.210999 -1.789,4 -4,4s-4,-1.789001 -4,-4l0,-20c2.93,0 5.636999,-0.844002 8,-2.219002l0,22.219002zm-8,-28c-4.41,0 -8,-3.585999 -8,-8s3.59,-8 8,-8s8,3.585999 8,8s-3.59,8 -8,8zm64.000004,32l-48.000004,0l0,-18.226997c2.362999,1.382996 5.074001,2.226997 8,2.226997l32.000004,0c2.926003,0 5.637001,-0.844002 8,-2.226997l0,18.226997zm-8,-24l-32.000004,0c-4.417999,0 -8,-3.578003 -8,-8s3.582001,-8 8,-8l32.000004,0c4.417999,0 8,3.578003 8,8s-3.582001,8 -8,8zm8,-21.773003c-2.362999,-1.382996 -5.073997,-2.226997 -8,-2.226997l-32.000004,0c-2.925999,0 -5.637001,0.844002 -8,2.226997l0,-50.226997l48.000004,0l0,50.226997zm16,41.773003c0,2.210999 -1.789001,4 -4,4s-4,-1.789001 -4,-4l0,-22.219002c2.362999,1.375 5.07,2.219002 8,2.219002l0,20zm0,-28c-4.410004,0 -8,-3.585999 -8,-8s3.589996,-8 8,-8s8,3.585999 8,8s-3.589996,8 -8,8z"/>
 </g>
</svg>