<svg width="64" height="64" xmlns="http://www.w3.org/2000/svg">

 <g>
  <title>background</title>
  <rect fill="none" id="canvas_background" height="402" width="582" y="-1" x="-1"/>
 </g>
 <g>
  <title>Layer 1</title>
  <path stroke="#706d44" fill="#706d44" id="svg_2" d="m44.299999,33.299999c0.900002,0.900002 0.900002,2.299999 0.100002,3.100002c-0.300003,0.299999 -0.800003,0.599998 -1.300003,0.599998l-0.199997,0c-0.5,0 -0.900002,-0.200001 -1.300003,-0.599998c-0.899998,-0.800003 -0.799999,-2.300003 0.100002,-3.100002l0.299999,-0.299999l1,0l1,0l0.299999,0.299999z" class="st1"/>
  <path stroke-miterlimit="10" stroke-linejoin="round" stroke-linecap="round" stroke-width="2" stroke="#706d44" fill="none" id="svg_4" d="m46.900002,8.877972l6.099998,19l-10,0l-7.099998,0l-7.800001,0l-17.1,0l6.1,-19l0.199999,-1c0.400002,-1.7 2,-3 3.900002,-3l21.399998,0c1.900002,0 3.5,1.2 3.900002,3l0.400002,1z" class="st0"/>
  <path stroke-miterlimit="10" stroke-linejoin="round" stroke-linecap="round" stroke-width="2" stroke="#706d44" fill="none" id="svg_5" d="m18.299999,56c-1.5,-1.900002 -2.299999,-4.099998 -2.299999,-6.5c0,-5.799999 5,-10.599998 11.799999,-12.099998c1.300001,-0.300003 2.800001,-0.400002 4.200001,-0.400002s2.900002,0.200001 4.200001,0.400002c6.799999,1.5 11.799999,6.299999 11.799999,12.099998c0,2.400002 -0.799999,4.599998 -2.299999,6.5" class="st0"/>
  <path stroke-miterlimit="10" stroke-linejoin="round" stroke-linecap="round" stroke-width="2" stroke="#706d44" fill="none" id="svg_6" d="m45.700001,56l0.299999,0c1.099998,0 2,0.900002 2,2c0,0.5 -0.200001,1 -0.599998,1.400002c-0.400002,0.399998 -0.900002,0.599998 -1.400002,0.599998l-28,0c-1.1,0 -2,-0.900002 -2,-2c0,-0.5 0.200001,-1 0.6,-1.400002c0.4,-0.399998 0.9,-0.599998 1.4,-0.599998l0.299999,0l27.400002,0z" class="st0"/>
  <path stroke-miterlimit="10" stroke-linejoin="round" stroke-linecap="round" stroke-width="2" stroke="#706d44" fill="none" id="svg_7" d="m35.900002,28c-1.300003,3 -1.100002,6.200001 0.299999,9.400002" class="st0"/>
  <path stroke-miterlimit="10" stroke-linejoin="round" stroke-linecap="round" stroke-width="2" stroke="#706d44" fill="none" id="svg_8" d="m27.799999,37.400002c1.400002,-3.300003 1.6,-6.400002 0.300001,-9.400002" class="st0"/>
  <line stroke-miterlimit="10" stroke-linejoin="round" stroke-linecap="round" stroke-width="2" stroke="#706d44" fill="none" id="svg_9" y2="33" y1="28" x2="43" x1="43" class="st0"/>
  <line stroke-miterlimit="10" stroke-linejoin="round" stroke-linecap="round" stroke-width="2" stroke="#706d44" fill="none" id="svg_10" y2="9" y1="9" x2="46.9" x1="17.1" class="st0"/>
 </g>
</svg>